<?xml version="1.0" encoding="iso-8859-1"?>
<!-- Generator: Adobe Illustrator 19.0.0, SVG Export Plug-In . SVG Version: 6.00 Build 0)  -->
<svg version="1.1" id="Capa_1" xmlns="http://www.w3.org/2000/svg" xmlns:xlink="http://www.w3.org/1999/xlink" x="0px" y="0px"
	 viewBox="0 0 512 512" style="enable-background:new 0 0 512 512;" xml:space="preserve">
<circle style="fill:#E25F3F;" cx="256" cy="256" r="256"/>
<path style="fill:#A2482A;" d="M203.896,78.555v76.586c-25.158,0-44.383,0-48.083,0l-19.635,259.365l96.417,96.417
	c7.71,0.699,15.512,1.075,23.403,1.075c132.468,0,241.434-100.614,254.651-229.591L306.795,78.554h-51.45L203.896,78.555
	L203.896,78.555z"/>
<path style="fill:#965C20;" d="M354.88,155.141c-11.227,0-187.046,0-199.067,0l-19.635,259.365c23.79,0,198.487,0,238.336,0
	L354.88,155.141z"/>
<path style="fill:#5E3C16;" d="M255.347,414.506c49.722,0,100.017,0,119.168,0L354.88,155.141c-5.625,0-52.573,0-99.533,0
	L255.347,414.506L255.347,414.506z"/>
<polygon style="fill:#ECF4F6;" points="306.797,172.027 286.072,172.027 286.072,99.281 224.622,99.281 224.622,172.027 
	203.897,172.027 203.897,78.555 306.797,78.555 "/>
<polygon style="fill:#B5DFEC;" points="306.797,172.027 306.797,78.555 255.347,78.555 255.347,99.281 286.072,99.281 
	286.072,172.027 "/>
<polygon style="fill:#F1CC37;" points="255.347,230.036 274.527,268.202 316.752,274.649 286.38,304.683 293.297,346.834 
	255.347,327.23 217.397,346.834 224.314,304.683 193.943,274.649 236.167,268.202 "/>
<polygon style="fill:#DF871E;" points="316.752,274.649 274.527,268.202 255.347,230.036 255.347,327.23 293.297,346.834 
	286.38,304.683 "/>
<g>
</g>
<g>
</g>
<g>
</g>
<g>
</g>
<g>
</g>
<g>
</g>
<g>
</g>
<g>
</g>
<g>
</g>
<g>
</g>
<g>
</g>
<g>
</g>
<g>
</g>
<g>
</g>
<g>
</g>
</svg>
